<svg xmlns="http://www.w3.org/2000/svg" width="256" height="192" viewBox="0 0 256 192">
  <!-- Idle Animation Frames -->
  <g id="idle-1" transform="translate(0,0)">
    <ellipse cx="32" cy="34" rx="18" ry="16" fill="#FF6347"/>
    <circle cx="32" cy="20" r="18" fill="#FFD700"/>
    <circle cx="26" cy="16" r="3" fill="#FFFFFF"/>
    <circle cx="38" cy="16" r="3" fill="#FFFFFF"/>
    <circle cx="26" cy="16" r="1.5" fill="#000000"/>
    <circle cx="38" cy="16" r="1.5" fill="#000000"/>
    <path d="M26 26 Q 32 30 38 26" fill="none" stroke="#000000" stroke-width="2"/>
    <rect x="22" y="48" width="8" height="12" rx="2" fill="#4169E1"/>
    <rect x="34" y="48" width="8" height="12" rx="2" fill="#4169E1"/>
    <rect x="14" y="34" width="8" height="5" rx="2" fill="#FFD700"/>
    <rect x="42" y="34" width="8" height="5" rx="2" fill="#FFD700"/>
  </g>
  <g id="idle-2" transform="translate(64,0)">
    <ellipse cx="32" cy="36" rx="18" ry="16" fill="#FF6347"/>
    <circle cx="32" cy="22" r="18" fill="#FFD700"/>
    <circle cx="26" cy="18" r="3" fill="#FFFFFF"/>
    <circle cx="38" cy="18" r="3" fill="#FFFFFF"/>
    <circle cx="26" cy="18" r="1.5" fill="#000000"/>
    <circle cx="38" cy="18" r="1.5" fill="#000000"/>
    <path d="M26 28 Q 32 32 38 28" fill="none" stroke="#000000" stroke-width="2"/>
    <rect x="22" y="50" width="8" height="10" rx="2" fill="#4169E1"/>
    <rect x="34" y="50" width="8" height="10" rx="2" fill="#4169E1"/>
    <rect x="14" y="36" width="8" height="5" rx="2" fill="#FFD700"/>
    <rect x="42" y="36" width="8" height="5" rx="2" fill="#FFD700"/>
  </g>
  <g id="idle-3" transform="translate(128,0)">
    <ellipse cx="32" cy="34" rx="18" ry="16" fill="#FF6347"/>
    <circle cx="32" cy="20" r="18" fill="#FFD700"/>
    <circle cx="26" cy="16" r="3" fill="#FFFFFF"/>
    <circle cx="38" cy="16" r="3" fill="#FFFFFF"/>
    <circle cx="26" cy="16" r="1.5" fill="#000000"/>
    <circle cx="38" cy="16" r="1.5" fill="#000000"/>
    <path d="M26 26 Q 32 30 38 26" fill="none" stroke="#000000" stroke-width="2"/>
    <rect x="22" y="48" width="8" height="12" rx="2" fill="#4169E1"/>
    <rect x="34" y="48" width="8" height="12" rx="2" fill="#4169E1"/>
    <rect x="14" y="34" width="8" height="5" rx="2" fill="#FFD700"/>
    <rect x="42" y="34" width="8" height="5" rx="2" fill="#FFD700"/>
  </g>
  <g id="idle-4" transform="translate(192,0)">
    <ellipse cx="32" cy="32" rx="18" ry="16" fill="#FF6347"/>
    <circle cx="32" cy="18" r="18" fill="#FFD700"/>
    <circle cx="26" cy="14" r="3" fill="#FFFFFF"/>
    <circle cx="38" cy="14" r="3" fill="#FFFFFF"/>
    <circle cx="26" cy="14" r="1.5" fill="#000000"/>
    <circle cx="38" cy="14" r="1.5" fill="#000000"/>
    <path d="M26 24 Q 32 28 38 24" fill="none" stroke="#000000" stroke-width="2"/>
    <rect x="22" y="46" width="8" height="14" rx="2" fill="#4169E1"/>
    <rect x="34" y="46" width="8" height="14" rx="2" fill="#4169E1"/>
    <rect x="14" y="32" width="8" height="5" rx="2" fill="#FFD700"/>
    <rect x="42" y="32" width="8" height="5" rx="2" fill="#FFD700"/>
  </g>

  <!-- Run Right Animation Frames -->
  <g id="run-right-1" transform="translate(0,64)">
    <ellipse cx="32" cy="34" rx="18" ry="16" fill="#FF6347"/>
    <circle cx="32" cy="20" r="18" fill="#FFD700"/>
    <circle cx="38" cy="16" r="3" fill="#FFFFFF"/>
    <circle cx="38" cy="16" r="1.5" fill="#000000"/>
    <path d="M32 26 Q 38 30 44 26" fill="none" stroke="#000000" stroke-width="2"/>
    <rect x="22" y="48" width="8" height="12" rx="2" fill="#4169E1"/>
    <rect x="34" y="46" width="8" height="14" rx="2" fill="#4169E1"/>
    <rect x="44" y="30" width="8" height="5" rx="2" fill="#FFD700"/>
    <rect x="14" y="34" width="8" height="5" rx="2" fill="#FFD700" transform="rotate(-30 18 36.5)"/>
  </g>
  <g id="run-right-2" transform="translate(64,64)">
    <ellipse cx="32" cy="32" rx="18" ry="16" fill="#FF6347"/>
    <circle cx="32" cy="18" r="18" fill="#FFD700"/>
    <circle cx="38" cy="14" r="3" fill="#FFFFFF"/>
    <circle cx="38" cy="14" r="1.5" fill="#000000"/>
    <path d="M32 24 Q 38 28 44 24" fill="none" stroke="#000000" stroke-width="2"/>
    <rect x="22" y="46" width="8" height="14" rx="2" fill="#4169E1"/>
    <rect x="34" y="44" width="8" height="16" rx="2" fill="#4169E1"/>
    <rect x="44" y="28" width="8" height="5" rx="2" fill="#FFD700"/>
    <rect x="14" y="32" width="8" height="5" rx="2" fill="#FFD700" transform="rotate(-45 18 34.5)"/>
  </g>

  <g id="run-right-3" transform="translate(128,64)">
    <ellipse cx="32" cy="34" rx="18" ry="16" fill="#FF6347"/>
    <circle cx="32" cy="20" r="18" fill="#FFD700"/>
    <circle cx="38" cy="16" r="3" fill="#FFFFFF"/>
    <circle cx="38" cy="16" r="1.5" fill="#000000"/>
    <path d="M32 26 Q 38 30 44 26" fill="none" stroke="#000000" stroke-width="2"/>
    <rect x="22" y="48" width="8" height="12" rx="2" fill="#4169E1"/>
    <rect x="34" y="46" width="8" height="14" rx="2" fill="#4169E1"/>
    <rect x="44" y="30" width="8" height="5" rx="2" fill="#FFD700"/>
    <rect x="14" y="34" width="8" height="5" rx="2" fill="#FFD700" transform="rotate(-15 18 36.5)"/>
  </g>
  <g id="run-right-4" transform="translate(192,64)">
    <ellipse cx="32" cy="36" rx="18" ry="16" fill="#FF6347"/>
    <circle cx="32" cy="22" r="18" fill="#FFD700"/>
    <circle cx="38" cy="18" r="3" fill="#FFFFFF"/>
    <circle cx="38" cy="18" r="1.5" fill="#000000"/>
    <path d="M32 28 Q 38 32 44 28" fill="none" stroke="#000000" stroke-width="2"/>
    <rect x="22" y="50" width="8" height="10" rx="2" fill="#4169E1"/>
    <rect x="34" y="48" width="8" height="12" rx="2" fill="#4169E1"/>
    <rect x="44" y="32" width="8" height="5" rx="2" fill="#FFD700"/>
    <rect x="14" y="36" width="8" height="5" rx="2" fill="#FFD700"/>
  </g>

  <!-- Run Left Animation Frames -->
  <g id="run-left-1" transform="translate(0,128)">
    <ellipse cx="32" cy="34" rx="18" ry="16" fill="#FF6347"/>
    <circle cx="32" cy="20" r="18" fill="#FFD700"/>
    <circle cx="26" cy="16" r="3" fill="#FFFFFF"/>
    <circle cx="26" cy="16" r="1.5" fill="#000000"/>
    <path d="M20 26 Q 26 30 32 26" fill="none" stroke="#000000" stroke-width="2"/>
    <rect x="34" y="48" width="8" height="12" rx="2" fill="#4169E1"/>
    <rect x="22" y="46" width="8" height="14" rx="2" fill="#4169E1"/>
    <rect x="12" y="30" width="8" height="5" rx="2" fill="#FFD700"/>
    <rect x="42" y="34" width="8" height="5" rx="2" fill="#FFD700" transform="rotate(30 46 36.5)"/>
  </g>
  <g id="run-left-2" transform="translate(64,128)">
    <ellipse cx="32" cy="32" rx="18" ry="16" fill="#FF6347"/>
    <circle cx="32" cy="18" r="18" fill="#FFD700"/>
    <circle cx="26" cy="14" r="3" fill="#FFFFFF"/>
    <circle cx="26" cy="14" r="1.5" fill="#000000"/>
    <path d="M20 24 Q 26 28 32 24" fill="none" stroke="#000000" stroke-width="2"/>
    <rect x="34" y="46" width="8" height="14" rx="2" fill="#4169E1"/>
    <rect x="22" y="44" width="8" height="16" rx="2" fill="#4169E1"/>
    <rect x="12" y="28" width="8" height="5" rx="2" fill="#FFD700"/>
    <rect x="42" y="32" width="8" height="5" rx="2" fill="#FFD700" transform="rotate(45 46 34.5)"/>
  </g>
  <g id="run-left-3" transform="translate(128,128)">
    <ellipse cx="32" cy="34" rx="18" ry="16" fill="#FF6347"/>
    <circle cx="32" cy="20" r="18" fill="#FFD700"/>
    <circle cx="26" cy="16" r="3" fill="#FFFFFF"/>
    <circle cx="26" cy="16" r="1.5" fill="#000000"/>
    <path d="M20 26 Q 26 30 32 26" fill="none" stroke="#000000" stroke-width="2"/>
    <rect x="34" y="48" width="8" height="12" rx="2" fill="#4169E1"/>
    <rect x="22" y="46" width="8" height="14" rx="2" fill="#4169E1"/>
    <rect x="12" y="30" width="8" height="5" rx="2" fill="#FFD700"/>
    <rect x="42" y="34" width="8" height="5" rx="2" fill="#FFD700" transform="rotate(15 46 36.5)"/>
  </g>
  <g id="run-left-4" transform="translate(192,128)">
    <ellipse cx="32" cy="36" rx="18" ry="16" fill="#FF6347"/>
    <circle cx="32" cy="22" r="18" fill="#FFD700"/>
    <circle cx="26" cy="18" r="3" fill="#FFFFFF"/>
    <circle cx="26" cy="18" r="1.5" fill="#000000"/>
    <path d="M20 28 Q 26 32 32 28" fill="none" stroke="#000000" stroke-width="2"/>
    <rect x="34" y="50" width="8" height="10" rx="2" fill="#4169E1"/>
    <rect x="22" y="48" width="8" height="12" rx="2" fill="#4169E1"/>
    <rect x="12" y="32" width="8" height="5" rx="2" fill="#FFD700"/>
    <rect x="42" y="36" width="8" height="5" rx="2" fill="#FFD700"/>
  </g>
</svg>
